<svg xmlns="http://www.w3.org/2000/svg" xmlns:xlink="http://www.w3.org/1999/xlink" width="225.556" height="225.556" viewBox="0 0 225.556 225.556">
  <defs>
    <filter id="Ellipse_71" x="0" y="0" width="225.556" height="225.556" filterUnits="userSpaceOnUse">
      <feOffset dy="3" input="SourceAlpha"/>
      <feGaussianBlur stdDeviation="19.5" result="blur"/>
      <feFlood flood-opacity="0.161"/>
      <feComposite operator="in" in2="blur"/>
      <feComposite in="SourceGraphic"/>
    </filter>
    <linearGradient id="linear-gradient" x1="0.5" x2="0.5" y2="1" gradientUnits="objectBoundingBox">
      <stop offset="0" stop-color="#46d546"/>
      <stop offset="1" stop-color="#46d5a4"/>
    </linearGradient>
  </defs>
  <g id="Group_15920" data-name="Group 15920" transform="translate(-1102.5 -2587.5)">
    <g transform="matrix(1, 0, 0, 1, 1102.5, 2587.5)" filter="url(#Ellipse_71)">
      <circle id="Ellipse_71-2" data-name="Ellipse 71" cx="54.278" cy="54.278" r="54.278" transform="translate(58.5 55.5)" fill="#fff"/>
    </g>
    <path id="icons8_bluetooth_2" d="M27.764,4c-6.676,0-11.6,1.8-15.053,5.5C8.868,13.622,7,20.012,7,29.039s1.868,15.417,5.711,19.535c3.454,3.7,8.377,5.5,15.053,5.5s11.608-1.8,15.055-5.506c3.842-4.127,5.709-10.515,5.709-19.533S46.661,13.633,42.819,9.506C39.372,5.8,34.447,4,27.764,4Zm-2.056,8.564a1.832,1.832,0,0,1,1.462.468l8.65,7.922a1.833,1.833,0,0,1-.1,2.789l-6.746,5.313,6.651,5.265a1.833,1.833,0,0,1,.107,2.779l-8.55,7.939A1.832,1.832,0,0,1,24.1,43.7V32.889l-3.142,2.474a1.831,1.831,0,1,1-2.266-2.877l4.365-3.438-4.368-3.457a1.832,1.832,0,1,1,2.273-2.875L24.1,25.2V14.382a1.831,1.831,0,0,1,1.608-1.818Zm2.056,5.981v6.8L31.755,22.2Zm0,14.23v6.72l3.905-3.626Z" transform="translate(1187.236 2668.461)" fill="url(#linear-gradient)"/>
  </g>
</svg>
