<svg xmlns="http://www.w3.org/2000/svg" xmlns:xlink="http://www.w3.org/1999/xlink" width="225.556" height="225.556" viewBox="0 0 225.556 225.556">
  <defs>
    <filter id="Ellipse_76" x="0" y="0" width="225.556" height="225.556" filterUnits="userSpaceOnUse">
      <feOffset dy="3" input="SourceAlpha"/>
      <feGaussianBlur stdDeviation="19.5" result="blur"/>
      <feFlood flood-opacity="0.161"/>
      <feComposite operator="in" in2="blur"/>
      <feComposite in="SourceGraphic"/>
    </filter>
    <linearGradient id="linear-gradient" x1="0.5" x2="0.5" y2="1" gradientUnits="objectBoundingBox">
      <stop offset="0" stop-color="#46d546"/>
      <stop offset="1" stop-color="#46d5a4"/>
    </linearGradient>
  </defs>
  <g id="Group_15921" data-name="Group 15921" transform="translate(-846.21 -2735.58)">
    <g transform="matrix(1, 0, 0, 1, 846.21, 2735.58)" filter="url(#Ellipse_76)">
      <circle id="Ellipse_76-2" data-name="Ellipse 76" cx="54.278" cy="54.278" r="54.278" transform="translate(58.5 55.5)" fill="#fff"/>
    </g>
    <path id="icons8_video_message_1" d="M26.446,3C12.944,3,2,12.261,2,23.685c0,6.333,3.372,11.995,8.672,15.789.135,2.888-.312,6.877-4.3,8.716l-.007,0A.941.941,0,0,0,6.826,50c4.61-.046,8.517-2.564,11.191-5.2A3.36,3.36,0,0,1,21,43.853a28.691,28.691,0,0,0,5.447.518c13.5,0,24.446-9.261,24.446-20.685S39.948,3,26.446,3Zm-9.4,13.163H30.207a1.881,1.881,0,0,1,1.88,1.88V29.327a1.881,1.881,0,0,1-1.88,1.88H17.044a1.881,1.881,0,0,1-1.88-1.88V18.044A1.881,1.881,0,0,1,17.044,16.163Zm23.322,1.9a.936.936,0,0,1,1.124.922v9.4a.942.942,0,0,1-.58.87.922.922,0,0,1-.36.07.946.946,0,0,1-.665-.275L36.124,25.29a.946.946,0,0,1-.275-.665v-1.88a.946.946,0,0,1,.275-.665l3.761-3.761A.94.94,0,0,1,40.366,18.062Z" transform="translate(931.554 2819.002)" fill="url(#linear-gradient)"/>
  </g>
</svg>
