<svg xmlns="http://www.w3.org/2000/svg" xmlns:xlink="http://www.w3.org/1999/xlink" width="225.556" height="225.556" viewBox="0 0 225.556 225.556">
  <defs>
    <filter id="Ellipse_75" x="0" y="0" width="225.556" height="225.556" filterUnits="userSpaceOnUse">
      <feOffset dy="3" input="SourceAlpha"/>
      <feGaussianBlur stdDeviation="19.5" result="blur"/>
      <feFlood flood-opacity="0.161"/>
      <feComposite operator="in" in2="blur"/>
      <feComposite in="SourceGraphic"/>
    </filter>
    <linearGradient id="linear-gradient" x1="0.5" x2="0.5" y2="1" gradientUnits="objectBoundingBox">
      <stop offset="0" stop-color="#46d546"/>
      <stop offset="1" stop-color="#46d5a4"/>
    </linearGradient>
  </defs>
  <g id="Group_15919" data-name="Group 15919" transform="translate(-590.5 -2587.5)">
    <g transform="matrix(1, 0, 0, 1, 590.5, 2587.5)" filter="url(#Ellipse_75)">
      <circle id="Ellipse_75-2" data-name="Ellipse 75" cx="54.278" cy="54.278" r="54.278" transform="translate(58.5 55.5)" fill="#fff"/>
    </g>
    <path id="icons8_map_marker_2" d="M33.013,0a8,8,0,0,0-8,8c0,5.716,8,14.006,8,14.006s8-8.29,8-14.006A8,8,0,0,0,33.013,0Zm0,5.143A2.861,2.861,0,1,1,30.152,8,2.862,2.862,0,0,1,33.013,5.143ZM14.947,6a1.991,1.991,0,0,0-.684.141l-10,4A2.009,2.009,0,0,0,3,12.005V40.017a2,2,0,0,0,2.743,1.86l9.324-3.732,11.31,3.771a2,2,0,0,0,1.376-.039l10-4a2.006,2.006,0,0,0,1.258-1.86V21.181c-1.385,1.761-2.608,3.075-3.126,3.611L33.013,27.77l-2.876-2.978c-.518-.536-1.742-1.85-3.126-3.611V37.864l-.062.023L15.005,33.905V10.157l.063-.023,6.8,2.263A13.228,13.228,0,0,1,21.008,8c0-.036.008-.069.008-.106L15.638,6.1A2,2,0,0,0,14.947,6Z" transform="translate(681 2676)" fill="url(#linear-gradient)"/>
  </g>
</svg>
