<svg xmlns="http://www.w3.org/2000/svg" xmlns:xlink="http://www.w3.org/1999/xlink" width="225.556" height="225.556" viewBox="0 0 225.556 225.556">
  <defs>
    <filter id="Ellipse_74" x="0" y="0" width="225.556" height="225.556" filterUnits="userSpaceOnUse">
      <feOffset dy="3" input="SourceAlpha"/>
      <feGaussianBlur stdDeviation="19.5" result="blur"/>
      <feFlood flood-opacity="0.161"/>
      <feComposite operator="in" in2="blur"/>
      <feComposite in="SourceGraphic"/>
    </filter>
    <linearGradient id="linear-gradient" x1="0.5" x2="0.5" y2="1" gradientUnits="objectBoundingBox">
      <stop offset="0" stop-color="#46d546"/>
      <stop offset="1" stop-color="#46d5a4"/>
    </linearGradient>
  </defs>
  <g id="Group_15917" data-name="Group 15917" transform="translate(-590.5 -2291.5)">
    <g transform="matrix(1, 0, 0, 1, 590.5, 2291.5)" filter="url(#Ellipse_74)">
      <circle id="Ellipse_74-2" data-name="Ellipse 74" cx="54.278" cy="54.278" r="54.278" transform="translate(58.5 55.5)" fill="#fff"/>
    </g>
    <path id="icons8_batteries" d="M10.933,3A2.234,2.234,0,0,0,8.7,5.233V7.466H6.466A4.479,4.479,0,0,0,2,11.933v26.8A4.479,4.479,0,0,0,6.466,43.2H24.332A4.479,4.479,0,0,0,28.8,38.73v-26.8a4.479,4.479,0,0,0-4.466-4.466H22.1V5.233A2.234,2.234,0,0,0,19.865,3ZM26.565,3v.283a8.959,8.959,0,0,1,5.483,4.183H35.5V9.7a2.234,2.234,0,0,0,2.233,2.233H42.2v26.8H33.264A8.842,8.842,0,0,1,32.021,43.2H42.2a4.479,4.479,0,0,0,4.466-4.466v-26.8A4.479,4.479,0,0,0,42.2,7.466H39.964V5.233A2.234,2.234,0,0,0,37.73,3Z" transform="translate(679 2379)" fill="url(#linear-gradient)"/>
  </g>
</svg>
