<svg xmlns="http://www.w3.org/2000/svg" xmlns:xlink="http://www.w3.org/1999/xlink" width="225.556" height="225.556" viewBox="0 0 225.556 225.556">
  <defs>
    <filter id="Ellipse_72" x="0" y="0" width="225.556" height="225.556" filterUnits="userSpaceOnUse">
      <feOffset dy="3" input="SourceAlpha"/>
      <feGaussianBlur stdDeviation="19.5" result="blur"/>
      <feFlood flood-opacity="0.161"/>
      <feComposite operator="in" in2="blur"/>
      <feComposite in="SourceGraphic"/>
    </filter>
    <linearGradient id="linear-gradient" x1="0.5" x2="0.5" y2="1" gradientUnits="objectBoundingBox">
      <stop offset="0" stop-color="#46d546"/>
      <stop offset="1" stop-color="#46d5a4"/>
    </linearGradient>
  </defs>
  <g id="Group_15918" data-name="Group 15918" transform="translate(-1102.5 -2291.5)">
    <g transform="matrix(1, 0, 0, 1, 1102.5, 2291.5)" filter="url(#Ellipse_72)">
      <circle id="Ellipse_72-2" data-name="Ellipse 72" cx="54.278" cy="54.278" r="54.278" transform="translate(58.5 55.5)" fill="#fff"/>
    </g>
    <path id="Union_1" data-name="Union 1" d="M5385.522,47.418a4.5,4.5,0,0,0-9.007,0h-3a7.521,7.521,0,0,1,3.325-6.222,5.905,5.905,0,0,1-1.259-6.787,6.939,6.939,0,0,0-5.069-2A7.521,7.521,0,0,0,5363,39.913h-3a10.463,10.463,0,0,1,5.845-9.282A7.389,7.389,0,0,1,5363,24.9a7.508,7.508,0,0,1,15.015,0,7.394,7.394,0,0,1-2.765,5.68,10.666,10.666,0,0,1,2.213,1.523,5.871,5.871,0,0,1,7.107,0,10.692,10.692,0,0,1,2.215-1.523,7.4,7.4,0,0,1-2.765-5.68,7.506,7.506,0,0,1,15.013,0,7.385,7.385,0,0,1-2.842,5.733,10.464,10.464,0,0,1,5.845,9.282h-3a7.521,7.521,0,0,0-7.507-7.508,6.946,6.946,0,0,0-5.069,2,5.916,5.916,0,0,1,.566,2.5A5.976,5.976,0,0,1,5385.2,41.2a7.522,7.522,0,0,1,3.325,6.222Zm-7.505-10.508a3,3,0,1,0,3-3A2.98,2.98,0,0,0,5378.017,36.91Zm9.007-12.012a4.5,4.5,0,1,0,4.5-4.5A4.483,4.483,0,0,0,5387.024,24.9Zm-21.02,0a4.5,4.5,0,1,0,4.5-4.5A4.483,4.483,0,0,0,5366,24.9Zm6.294-10.447a1.5,1.5,0,0,1-.7-2.369,11.992,11.992,0,0,1,18.844,0,1.5,1.5,0,0,1-2.357,1.86,8.987,8.987,0,0,0-14.128,0,1.5,1.5,0,0,1-1.663.51ZM5366.411,9.8a1.5,1.5,0,0,1-.7-2.373,19.487,19.487,0,0,1,30.619,0,1.5,1.5,0,1,1-2.356,1.862,16.482,16.482,0,0,0-25.905,0,1.5,1.5,0,0,1-1.661.512Z" transform="translate(-4165.999 2378)" fill="url(#linear-gradient)"/>
  </g>
</svg>
