<svg id="Group_1551" data-name="Group 1551" xmlns="http://www.w3.org/2000/svg" width="64.391" height="64.391" viewBox="0 0 64.391 64.391">
  <rect id="Rectangle_488" data-name="Rectangle 488" width="64.391" height="64.391" rx="32" transform="translate(0 0)" fill="#0482ff"/>
  <path id="icons8_voip" d="M7.1,2A3.125,3.125,0,0,0,4,5.1V29.917a3.125,3.125,0,0,0,3.1,3.1H25.713a3.125,3.125,0,0,0,3.1-3.1V5.1a3.125,3.125,0,0,0-3.1-3.1Zm0,3.1H25.713V23.713H7.1Zm3.79,3.1a.682.682,0,0,0-.688.688,11.687,11.687,0,0,0,11.72,11.72.682.682,0,0,0,.688-.688V17.094a.691.691,0,0,0-.672-.694,10.564,10.564,0,0,1-1.327-.094,10.051,10.051,0,0,1-1.139-.294.7.7,0,0,0-.7.173L17.959,17.4a10.813,10.813,0,0,1-4.544-4.544l1.236-.812a.7.7,0,0,0,.176-.7,10.067,10.067,0,0,1-.291-1.139,10.218,10.218,0,0,1-.1-1.327.688.688,0,0,0-.691-.672ZM7.1,26.815h3.1v3.1H7.1Zm6.2,0H25.713v3.1H13.306Z" transform="translate(15.813 14.161)" fill="#fff"/>
</svg>
