<svg xmlns="http://www.w3.org/2000/svg" xmlns:xlink="http://www.w3.org/1999/xlink" width="225.556" height="225.556" viewBox="0 0 225.556 225.556">
  <defs>
    <filter id="Ellipse_72" x="0" y="0" width="225.556" height="225.556" filterUnits="userSpaceOnUse">
      <feOffset dy="3" input="SourceAlpha"/>
      <feGaussianBlur stdDeviation="19.5" result="blur"/>
      <feFlood flood-opacity="0.161"/>
      <feComposite operator="in" in2="blur"/>
      <feComposite in="SourceGraphic"/>
    </filter>
    <linearGradient id="linear-gradient" x1="0.5" x2="0.5" y2="1" gradientUnits="objectBoundingBox">
      <stop offset="0" stop-color="#46d546"/>
      <stop offset="1" stop-color="#46d5a4"/>
    </linearGradient>
  </defs>
  <g id="Group_1598" data-name="Group 1598" transform="translate(-1094.202 -2228.975)">
    <g transform="matrix(1, 0, 0, 1, 1094.2, 2228.97)" filter="url(#Ellipse_72)">
      <circle id="Ellipse_72-2" data-name="Ellipse 72" cx="54.278" cy="54.278" r="54.278" transform="translate(58.5 55.5)" fill="#fff"/>
    </g>
    <path id="icons8_easy" d="M21.949,1.979a1.654,1.654,0,0,0-1.628,1.678V6.964a1.654,1.654,0,1,0,3.308,0V3.656a1.654,1.654,0,0,0-1.68-1.678ZM14.274,6.535a1.654,1.654,0,0,0-.816,3.112l2.894,1.6a1.654,1.654,0,1,0,1.6-2.894l-2.892-1.6a1.654,1.654,0,0,0-.788-.22Zm15.352,0a1.654,1.654,0,0,0-.739.217l-2.892,1.6a1.654,1.654,0,0,0,1.6,2.894l2.894-1.6a1.654,1.654,0,0,0-.866-3.11ZM39.637,7.666a4.922,4.922,0,0,0-2.677,1.1L19.616,22.793c-1.381-5.652-3.269-8.166-4.845-9.35a6.642,6.642,0,0,0-3.878-1.466,5.807,5.807,0,0,0-2.42.549,3.863,3.863,0,0,0-2.039,5.048c.381.878.991,1.815,1.514,3.129a8.539,8.539,0,0,1,.685,4.223c-.576,4.06-.359,8.132,1.981,10.972,0,0,0,0,0,0l7.862,9.535A10.942,10.942,0,0,0,33.739,47l5.183-4.171A9.391,9.391,0,0,0,40.965,30.5l-5.11-8.06,7.408-6.015.011-.006a4.959,4.959,0,0,0-3.637-8.758Zm.325,3.273a1.593,1.593,0,0,1,.314,0,1.652,1.652,0,0,1,1.118.605,1.63,1.63,0,0,1-.222,2.326l0,0-8.547,6.936a1.654,1.654,0,0,0-.286,2.272c.012.016.012.014.019.024l5.814,9.174a6.042,6.042,0,0,1-1.32,7.972L31.665,44.42a7.585,7.585,0,0,1-10.638-1.09l-7.862-9.537c-1.342-1.628-1.769-4.811-1.26-8.4h0a11.584,11.584,0,0,0-.887-5.909,34.649,34.649,0,0,0-1.553-3.224.612.612,0,0,1,.332-.7,2.388,2.388,0,0,1,1.066-.271,3.141,3.141,0,0,1,1.919.8c1.011.76,2.54,2.363,3.835,8.243a2.809,2.809,0,0,0,4.4,1.585l.017-.015L39.053,11.329l.013-.009A1.672,1.672,0,0,1,39.962,10.939Z" transform="translate(1181.485 2312.795)" fill="url(#linear-gradient)"/>
  </g>
</svg>
