<svg xmlns="http://www.w3.org/2000/svg" xmlns:xlink="http://www.w3.org/1999/xlink" width="225.556" height="225.556" viewBox="0 0 225.556 225.556">
  <defs>
    <filter id="Ellipse_76" x="0" y="0" width="225.556" height="225.556" filterUnits="userSpaceOnUse">
      <feOffset dy="3" input="SourceAlpha"/>
      <feGaussianBlur stdDeviation="19.5" result="blur"/>
      <feFlood flood-opacity="0.161"/>
      <feComposite operator="in" in2="blur"/>
      <feComposite in="SourceGraphic"/>
    </filter>
    <linearGradient id="linear-gradient" x1="0.5" x2="0.5" y2="1" gradientUnits="objectBoundingBox">
      <stop offset="0" stop-color="#46d546"/>
      <stop offset="1" stop-color="#46d5a4"/>
    </linearGradient>
  </defs>
  <g id="Group_1601" data-name="Group 1601" transform="translate(-838.21 -2672.58)">
    <g transform="matrix(1, 0, 0, 1, 838.21, 2672.58)" filter="url(#Ellipse_76)">
      <circle id="Ellipse_76-2" data-name="Ellipse 76" cx="54.278" cy="54.278" r="54.278" transform="translate(58.5 55.5)" fill="#fff"/>
    </g>
    <path id="icons8_management" d="M11.365,3C9.793,3,8.608,4.722,8.608,4.722c-9.013,0-4.04,14.385-6.688,16.506,0,0,1.623,2.007,6.688,2.007v1.718C7.21,28.6,0,27.252,0,33.989H9.038l1.291-5.165L9.469,27.1h3.443l-.861,1.722,1.291,5.165h.471c1.212-.733,5.124-2.767,5.124-2.767a14.842,14.842,0,0,1-2.774-4.032,4.413,4.413,0,0,1-2.391-2.236V23.215a12.045,12.045,0,0,0,1.631-.151,12.682,12.682,0,0,1-1.416-5.39,10.767,10.767,0,0,1,4.4-8.988C17.561,5.517,15.723,3,11.365,3ZM39.6,3C35.77,3,33.42,5.633,32.852,9.083c2.782,1.491,4.593,4.705,4.593,8.753a10.892,10.892,0,0,1-.615,3.426,6.324,6.324,0,0,1,.185,1.564c0,4.252-4.3,8.494-4.3,8.494.935.408,3.926,1.928,5.148,2.67h.017l.861-6.886-.861-1.722h3.443L40.458,27.1l.861,6.886h10.33c0-9.038-7.339-6.456-8.608-10.33V21.077a6.628,6.628,0,0,0,2.1-3.813,2.459,2.459,0,0,0,1.338-2.108c0-.98-.311-1.392-.582-1.55a7.753,7.753,0,0,0,.582-2.858c0-3.135-.847-6.026-3.443-6.026C43.04,4.722,42.294,3,39.6,3ZM25.824,9.886c-4.635,0-8.393,2.791-8.393,7.787a7.121,7.121,0,0,0,1.184,3.759s-.538.264-.538,1.392c0,2.192,1.409,2.717,1.409,2.717.2,1.735,2.9,4.277,2.9,4.277v2.9c-1.45,4.349-10.33,1.483-10.33,11.6H24.1l.861-6.886L24.1,35.71h3.443l-.861,1.722.861,6.886H39.6c0-10.149-8.88-7.248-10.33-11.6v-2.9s2.7-2.542,2.9-4.277a3.528,3.528,0,0,0,1.409-2.717c0-1.209-.538-1.392-.538-1.392a9.065,9.065,0,0,0,.968-3.6c0-3.521-1.766-6.227-4.734-6.227A4.57,4.57,0,0,0,25.824,9.886Z" transform="translate(925.554 2758.698)" fill="url(#linear-gradient)"/>
  </g>
</svg>
