<svg xmlns="http://www.w3.org/2000/svg" xmlns:xlink="http://www.w3.org/1999/xlink" width="225.556" height="225.556" viewBox="0 0 225.556 225.556">
  <defs>
    <filter id="Ellipse_71" x="0" y="0" width="225.556" height="225.556" filterUnits="userSpaceOnUse">
      <feOffset dy="3" input="SourceAlpha"/>
      <feGaussianBlur stdDeviation="19.5" result="blur"/>
      <feFlood flood-opacity="0.161"/>
      <feComposite operator="in" in2="blur"/>
      <feComposite in="SourceGraphic"/>
    </filter>
    <linearGradient id="linear-gradient" x1="0.5" x2="0.5" y2="1" gradientUnits="objectBoundingBox">
      <stop offset="0" stop-color="#46d546"/>
      <stop offset="1" stop-color="#46d5a4"/>
    </linearGradient>
  </defs>
  <g id="Group_1600" data-name="Group 1600" transform="translate(-1094.601 -2524.485)">
    <g transform="matrix(1, 0, 0, 1, 1094.6, 2524.49)" filter="url(#Ellipse_71)">
      <circle id="Ellipse_71-2" data-name="Ellipse 71" cx="54.278" cy="54.278" r="54.278" transform="translate(58.5 55.5)" fill="#fff"/>
    </g>
    <path id="icons8_user_group_2" d="M12.455,10a6.285,6.285,0,0,0-4.7,2.009,6.379,6.379,0,0,0-1.572,4.264,6.514,6.514,0,0,0,1.3,3.533A10.36,10.36,0,0,0,2,28.819H6.182a6.257,6.257,0,0,1,12.5-.478,16.579,16.579,0,0,0-4.133,10.933h4.182a12.546,12.546,0,0,1,25.093,0H48A16.579,16.579,0,0,0,43.87,28.342a6.257,6.257,0,0,1,12.5.478h4.182a10.436,10.436,0,0,0-5.236-9,6.474,6.474,0,0,0,1.054-3.549,6.378,6.378,0,0,0-1.572-4.264,6.5,6.5,0,0,0-9.4,0,6.378,6.378,0,0,0-1.572,4.264,6.474,6.474,0,0,0,1.054,3.549,10.482,10.482,0,0,0-4.57,5.444,16.733,16.733,0,0,0-2.63-1.421,8.717,8.717,0,0,0-.131-11.182A8.305,8.305,0,0,0,31.275,10a8.305,8.305,0,0,0-6.269,2.663,8.717,8.717,0,0,0-.131,11.182,16.727,16.727,0,0,0-2.647,1.429,10.711,10.711,0,0,0-4.8-5.469,6.514,6.514,0,0,0,1.3-3.533,6.379,6.379,0,0,0-1.572-4.264A6.285,6.285,0,0,0,12.455,10Zm0,4.182a1.836,1.836,0,0,1,1.572.6,2.389,2.389,0,0,1,0,2.973,1.836,1.836,0,0,1-1.572.6,1.836,1.836,0,0,1-1.572-.6,2.389,2.389,0,0,1,0-2.973A1.836,1.836,0,0,1,12.455,14.182Zm18.819,0a3.85,3.85,0,0,1,3.141,1.258,4.626,4.626,0,0,1,0,5.848,3.85,3.85,0,0,1-3.141,1.258,3.85,3.85,0,0,1-3.141-1.258,4.626,4.626,0,0,1,0-5.848A3.85,3.85,0,0,1,31.275,14.182Zm18.819,0a1.836,1.836,0,0,1,1.572.6,2.39,2.39,0,0,1,0,2.973,2.347,2.347,0,0,1-3.145,0,2.39,2.39,0,0,1,0-2.973A1.836,1.836,0,0,1,50.094,14.182Z" transform="translate(1176.104 2609.626)" fill="url(#linear-gradient)"/>
  </g>
</svg>
