<svg xmlns="http://www.w3.org/2000/svg" xmlns:xlink="http://www.w3.org/1999/xlink" width="225.556" height="225.556" viewBox="0 0 225.556 225.556">
  <defs>
    <filter id="Ellipse_74" x="0" y="0" width="225.556" height="225.556" filterUnits="userSpaceOnUse">
      <feOffset dy="3" input="SourceAlpha"/>
      <feGaussianBlur stdDeviation="19.5" result="blur"/>
      <feFlood flood-opacity="0.161"/>
      <feComposite operator="in" in2="blur"/>
      <feComposite in="SourceGraphic"/>
    </filter>
    <linearGradient id="linear-gradient" x1="0.5" x2="0.5" y2="1" gradientUnits="objectBoundingBox">
      <stop offset="0" stop-color="#46d546"/>
      <stop offset="1" stop-color="#46d5a4"/>
    </linearGradient>
  </defs>
  <g id="Group_15922" data-name="Group 15922" transform="translate(-597.5 -2286.126)">
    <g transform="matrix(1, 0, 0, 1, 597.5, 2286.13)" filter="url(#Ellipse_74)">
      <circle id="Ellipse_74-2" data-name="Ellipse 74" cx="54.278" cy="54.278" r="54.278" transform="translate(58.5 55.5)" fill="#fff"/>
    </g>
    <path id="Path_991" data-name="Path 991" d="M37.112,4a1.054,1.054,0,0,0-.856.659c-.628,1.57-.067,2.063-2.124,4.15a4.645,4.645,0,0,0-1.3,3.244,4.4,4.4,0,1,0,8.793,0,4.645,4.645,0,0,0-1.3-3.244c-2.057-2.086-1.5-2.579-2.124-4.15A1.054,1.054,0,0,0,37.112,4Zm.115,4.183a9.231,9.231,0,0,0,1.581,2.091s0,.013,0,.016a2.542,2.542,0,0,1,.708,1.762,2.293,2.293,0,1,1-4.578,0,2.542,2.542,0,0,1,.708-1.762s0-.013,0-.016A9.231,9.231,0,0,0,37.228,8.178ZM27.545,10.73a1.054,1.054,0,0,0-.856.659c-.668,1.663-.053,2.224-2.289,4.479h-.016A4.921,4.921,0,0,0,23,19.31a4.671,4.671,0,1,0,9.337,0,4.921,4.921,0,0,0-1.383-3.442c-2.236-2.255-1.637-2.817-2.305-4.479A1.054,1.054,0,0,0,27.545,10.73Zm19.118,0a1.054,1.054,0,0,0-.856.659c-.668,1.663-.07,2.224-2.305,4.479a4.921,4.921,0,0,0-1.383,3.442,4.67,4.67,0,1,0,9.337,0,4.921,4.921,0,0,0-1.383-3.442h-.016c-2.236-2.255-1.621-2.817-2.289-4.479A1.054,1.054,0,0,0,46.663,10.73ZM27.677,14.946a9.493,9.493,0,0,0,1.778,2.388l-.016.016a2.8,2.8,0,0,1,.79,1.96,2.564,2.564,0,1,1-5.121,0,2.8,2.8,0,0,1,.79-1.96A9.439,9.439,0,0,0,27.677,14.946Zm19.1,0a9.439,9.439,0,0,0,1.778,2.4,2.8,2.8,0,0,1,.79,1.96,2.564,2.564,0,1,1-5.121,0,2.8,2.8,0,0,1,.79-1.96H45v-.016A9.493,9.493,0,0,0,46.779,14.946ZM37.228,24.6C29.545,24.6,23.2,30.405,23,37.654a1.054,1.054,0,0,0,1.054,1.07h12.12V48.835a1.5,1.5,0,1,1-3,0,1.054,1.054,0,1,0-2.108,0,3.607,3.607,0,1,0,7.213,0V38.724H50.4a1.054,1.054,0,0,0,1.054-1.07C51.259,30.405,44.91,24.6,37.228,24.6Zm0,2.108A11.826,11.826,0,0,1,49.2,36.617H25.256A11.825,11.825,0,0,1,37.228,26.7Z" transform="translate(672.772 2368.4)" fill="url(#linear-gradient)"/>
  </g>
</svg>
