<svg xmlns="http://www.w3.org/2000/svg" xmlns:xlink="http://www.w3.org/1999/xlink" width="225.556" height="225.556" viewBox="0 0 225.556 225.556">
  <defs>
    <filter id="Ellipse_75" x="0" y="0" width="225.556" height="225.556" filterUnits="userSpaceOnUse">
      <feOffset dy="3" input="SourceAlpha"/>
      <feGaussianBlur stdDeviation="19.5" result="blur"/>
      <feFlood flood-opacity="0.161"/>
      <feComposite operator="in" in2="blur"/>
      <feComposite in="SourceGraphic"/>
    </filter>
    <linearGradient id="linear-gradient" x1="0.5" x2="0.5" y2="1" gradientUnits="objectBoundingBox">
      <stop offset="0" stop-color="#46d546"/>
      <stop offset="1" stop-color="#46d5a4"/>
    </linearGradient>
  </defs>
  <g id="Group_1599" data-name="Group 1599" transform="translate(-582.293 -2524.485)">
    <g transform="matrix(1, 0, 0, 1, 582.29, 2524.49)" filter="url(#Ellipse_75)">
      <circle id="Ellipse_75-2" data-name="Ellipse 75" cx="54.278" cy="54.278" r="54.278" transform="translate(58.5 55.5)" fill="#fff"/>
    </g>
    <path id="icons8_radar" d="M20.036,0a20.036,20.036,0,1,0,8.625,38.1,6.673,6.673,0,0,1-1.666-2.906,16.7,16.7,0,1,1,3.59-28.068L27.014,10.7a11.626,11.626,0,0,0-16.592,2.7A6.642,6.642,0,0,1,13.8,14.541a8.233,8.233,0,0,1,10.823-1.454L20.89,16.82a3.3,3.3,0,0,0-.854-.124,3.339,3.339,0,1,0,3.339,3.339,3.3,3.3,0,0,0-.124-.854l3.74-3.74s.007.006.01.01l2.394-2.394-.01-.01,3.571-3.571.007.01,2.374-2.371A19.982,19.982,0,0,0,20.036,0ZM37.286,9.884l-2.452,2.452A16.5,16.5,0,0,1,33.328,30.06a3.335,3.335,0,0,0-3.274,3.333,3.3,3.3,0,0,0,.114.818c.015.059.034.115.052.173a3.314,3.314,0,0,0,.277.642c.015.027.026.055.042.081a3.328,3.328,0,0,0,5.73-3.388A19.872,19.872,0,0,0,37.286,9.884Zm-6.245,6.248L28.27,18.9a8.169,8.169,0,0,1,.114,1.132A8.326,8.326,0,0,1,12.131,22.6a3.315,3.315,0,0,0-.942-5.684c-.056-.022-.115-.037-.173-.055a3.286,3.286,0,0,0-.382-.1,3.146,3.146,0,0,0-1.259,0,3.336,3.336,0,0,0-.6,6.372,11.679,11.679,0,1,0,22.266-7Z" transform="translate(675.036 2614.228)" fill="url(#linear-gradient)"/>
  </g>
</svg>
