<svg id="Group_1549" data-name="Group 1549" xmlns="http://www.w3.org/2000/svg" width="64.391" height="64.391" viewBox="0 0 64.391 64.391">
  <rect id="Rectangle_489" data-name="Rectangle 489" width="64.391" height="64.391" rx="32" transform="translate(0 0)" fill="#f08"/>
  <path id="icons8_free_shipping" d="M2.226,8A2.238,2.238,0,0,0,0,10.226V28.035a2.238,2.238,0,0,0,2.226,2.226H5.264a4.444,4.444,0,0,0,8.765,0h6.887a2.054,2.054,0,0,0,1.391-.58,2.149,2.149,0,0,0,1.438.58h.812a4.452,4.452,0,1,0,0-1.484h-.812A.922.922,0,0,1,23,28.035v-14.1a.922.922,0,0,1,.742-.742h5.936a3.348,3.348,0,0,1,1.994,1.345l.093.139H28.2A2.228,2.228,0,0,0,25.971,16.9v2.968A2.3,2.3,0,0,0,28.2,22.1h7.42v5.936a.921.921,0,0,1-.742.742H33.391v1.484h1.484A2.3,2.3,0,0,0,37.1,28.035V20.916a5.037,5.037,0,0,0-.6-2.18,8,8,0,0,0-.58-1v-.023l-3.038-4.081h-.023v-.023a4.278,4.278,0,0,0-3.177-1.9H23.745a2.023,2.023,0,0,0-.742.139V10.226A2.238,2.238,0,0,0,20.777,8Zm0,1.484H20.777a.74.74,0,0,1,.742.742V28.174a.588.588,0,0,1-.6.6H14.029a4.444,4.444,0,0,0-8.765,0H2.226a.74.74,0,0,1-.742-.742V10.226A.74.74,0,0,1,2.226,9.484ZM28.2,16.162h4.684L34.713,18.6l.023.023a5.919,5.919,0,0,1,.441.765,4.369,4.369,0,0,1,.348,1.229H28.2a.921.921,0,0,1-.742-.742V16.9A.872.872,0,0,1,28.2,16.162ZM3.71,16.9v4.313h.974V19.432H6.446V18.69H4.684v-.974H6.678V16.9Zm3.71,0v4.151h.812V19.432h.974c.667,0,.667.516.742,1.183a.9.9,0,0,0,.07.441h.974c-.148-.148-.162-.667-.162-.742,0-1.038-.432-1.183-.58-1.183a1.052,1.052,0,0,0,.649-1.043A1.192,1.192,0,0,0,9.646,16.9Zm4.452,0v4.313h3.2v-.835H12.754v-1.02h2.087V18.62H12.754v-.9H14.98V16.9Zm4.22,0v4.313h3.2v-.835H17v-1.02h2.064V18.62H17v-.9h2.226V16.9ZM8.3,17.646H9.345a.6.6,0,0,1,.672.6c0,.594-.449.58-.672.58H8.3Zm1.345,8.9a2.968,2.968,0,1,1-2.968,2.968A2.955,2.955,0,0,1,9.646,26.551Zm19.293,0a2.968,2.968,0,1,1-2.968,2.968A2.955,2.955,0,0,1,28.939,26.551Z" transform="translate(13.208 11.813)" fill="#fff"/>
</svg>
