<svg xmlns="http://www.w3.org/2000/svg" xmlns:xlink="http://www.w3.org/1999/xlink" width="322.735" height="80.787" viewBox="0 0 322.735 80.787">
  <defs>
    <linearGradient id="linear-gradient" x1="0.143" y1="0.204" x2="0.867" y2="0.877" gradientUnits="objectBoundingBox">
      <stop offset="0" stop-color="#63af33"/>
      <stop offset="1" stop-color="#58b68b"/>
    </linearGradient>
  </defs>
  <g id="Group_15964" data-name="Group 15964" transform="translate(-26.558 98.593)">
    <g id="Group_15962" data-name="Group 15962" transform="translate(103.345 -83.095)">
      <g id="Group_15960" data-name="Group 15960">
        <path id="Path_10538" data-name="Path 10538" d="M90.8-60.1V-72.444H77.235V-60.1h-4.89V-88.988h4.89v11.941H90.8V-88.988h4.931V-60.1Z" transform="translate(-72.345 89.598)" fill="#040505"/>
        <path id="Path_10539" data-name="Path 10539" d="M98.87-83.958a10.433,10.433,0,0,1,4.115.795,10.018,10.018,0,0,1,3.26,2.2,10.036,10.036,0,0,1,2.16,3.321,11.13,11.13,0,0,1,.775,4.2,11.272,11.272,0,0,1-.775,4.218,9.978,9.978,0,0,1-2.16,3.342,10.018,10.018,0,0,1-3.26,2.2,10.433,10.433,0,0,1-4.115.795,10.475,10.475,0,0,1-4.1-.795,9.741,9.741,0,0,1-3.26-2.2,10.14,10.14,0,0,1-2.14-3.342,11.239,11.239,0,0,1-.773-4.218,11.1,11.1,0,0,1,.773-4.2,10.2,10.2,0,0,1,2.14-3.321,9.741,9.741,0,0,1,3.26-2.2A10.475,10.475,0,0,1,98.87-83.958Zm0,16.829a5.5,5.5,0,0,0,2.1-.406,5.2,5.2,0,0,0,1.773-1.2,5.661,5.661,0,0,0,1.223-1.977,7.675,7.675,0,0,0,.449-2.73,7.516,7.516,0,0,0-.449-2.71,5.7,5.7,0,0,0-1.223-1.955,4.957,4.957,0,0,0-1.773-1.182,5.75,5.75,0,0,0-2.1-.387,5.744,5.744,0,0,0-2.1.387,4.743,4.743,0,0,0-1.753,1.182A6.139,6.139,0,0,0,93.8-76.155a7.193,7.193,0,0,0-.47,2.71,7.344,7.344,0,0,0,.47,2.73,6.083,6.083,0,0,0,1.223,1.977,4.964,4.964,0,0,0,1.753,1.2A5.492,5.492,0,0,0,98.87-67.129Z" transform="translate(-61.339 93.004)" fill="#040505"/>
        <path id="Path_10540" data-name="Path 10540" d="M102.986-63.518V-83.362h4.523v2.526a5.565,5.565,0,0,1,2.526-2.3,7.717,7.717,0,0,1,3.342-.795,7.229,7.229,0,0,1,3.545.877,5.6,5.6,0,0,1,2.4,2.628,6.7,6.7,0,0,1,2.833-2.73,8.381,8.381,0,0,1,3.607-.775,7.718,7.718,0,0,1,2.608.449,6.33,6.33,0,0,1,2.241,1.365,6.628,6.628,0,0,1,1.57,2.343,8.836,8.836,0,0,1,.59,3.383v12.876H128.21v-12.1a4.563,4.563,0,0,0-.917-2.913A3.487,3.487,0,0,0,124.38-79.7a3.782,3.782,0,0,0-3,1.285,4.579,4.579,0,0,0-1.12,3.118v11.776h-4.645v-12.1a4.652,4.652,0,0,0-.9-2.893,3.45,3.45,0,0,0-2.935-1.182,3.823,3.823,0,0,0-3.015,1.243,4.6,4.6,0,0,0-1.1,3.16v11.776Z" transform="translate(-51.6 93.02)" fill="#040505"/>
        <path id="Path_10541" data-name="Path 10541" d="M141.78-69.165a9.321,9.321,0,0,1-1.182,2.443,8.348,8.348,0,0,1-1.915,2,9.115,9.115,0,0,1-2.608,1.345,10.29,10.29,0,0,1-3.26.49,10.575,10.575,0,0,1-3.872-.714,9.343,9.343,0,0,1-3.218-2.078,10.19,10.19,0,0,1-2.222-3.341,11.482,11.482,0,0,1-.835-4.5,11.067,11.067,0,0,1,.795-4.278,10.17,10.17,0,0,1,2.14-3.28,9.676,9.676,0,0,1,3.1-2.118,9.072,9.072,0,0,1,3.626-.755,10.861,10.861,0,0,1,4.1.733,8.384,8.384,0,0,1,3.057,2.08,9.045,9.045,0,0,1,1.9,3.238,13.056,13.056,0,0,1,.651,4.26q0,.571-.04,1a2.157,2.157,0,0,1-.082.51H127.395a5.164,5.164,0,0,0,.49,2.078,5.45,5.45,0,0,0,1.181,1.63,5.361,5.361,0,0,0,1.692,1.08,5.432,5.432,0,0,0,2.058.387,4.946,4.946,0,0,0,3.321-1,5.456,5.456,0,0,0,1.65-2.465Zm-4.525-6.44a5.28,5.28,0,0,0-.345-1.65,4.009,4.009,0,0,0-.917-1.405,4.534,4.534,0,0,0-1.508-.978,5.564,5.564,0,0,0-2.118-.367,4.837,4.837,0,0,0-1.977.387A4.657,4.657,0,0,0,128.9-78.6a5.156,5.156,0,0,0-.978,1.427,4.257,4.257,0,0,0-.408,1.568Z" transform="translate(-38.275 93.004)" fill="#040505"/>
        <path id="Path_10542" data-name="Path 10542" d="M156.095-63.272a14.731,14.731,0,0,1-3.627,2.893,8.691,8.691,0,0,1-4.278,1.06,9.769,9.769,0,0,1-3.688-.652,8.389,8.389,0,0,1-2.71-1.711,6.949,6.949,0,0,1-1.65-2.425,7.4,7.4,0,0,1-.55-2.792,7.829,7.829,0,0,1,.367-2.485,8.345,8.345,0,0,1,1.018-2.058,9.6,9.6,0,0,1,1.57-1.773q.916-.815,2.058-1.67l.285-.2-.49-.53q-.531-.528-1.1-1.223a13.444,13.444,0,0,1-1.06-1.486,9.137,9.137,0,0,1-.815-1.712,5.761,5.761,0,0,1-.325-1.935,7.074,7.074,0,0,1,.673-3.16,7.107,7.107,0,0,1,1.773-2.3,7.8,7.8,0,0,1,2.485-1.427,8.414,8.414,0,0,1,2.812-.488,9.47,9.47,0,0,1,3.158.508A7.488,7.488,0,0,1,154.5-87.4a6.555,6.555,0,0,1,1.652,2.261,7.2,7.2,0,0,1,.59,2.955,5.7,5.7,0,0,1-.347,2,7.682,7.682,0,0,1-.916,1.753,9.753,9.753,0,0,1-1.3,1.508,16.3,16.3,0,0,1-1.508,1.263l-1.263.937,4.808,5.013,6.888-7.418v6.113l-3.953,4.36,6.519,6.805h-6.316Zm-7.823-.325a4.468,4.468,0,0,0,2.568-.775,13.278,13.278,0,0,0,2.241-1.955l.04-.042-5.338-5.663-.978.733a7.27,7.27,0,0,0-1.712,1.712,4.041,4.041,0,0,0-.651,2.363,3.367,3.367,0,0,0,.265,1.325,3.952,3.952,0,0,0,.753,1.161,3.439,3.439,0,0,0,1.2.835A4.03,4.03,0,0,0,148.271-63.6Zm-2.527-18.664a3.469,3.469,0,0,0,.57,1.935,11.864,11.864,0,0,0,1.345,1.69l.815.9,1.67-1.223a5.076,5.076,0,0,0,1.55-1.67,3.617,3.617,0,0,0,.408-1.63,3,3,0,0,0-.9-2.2,3.143,3.143,0,0,0-2.323-.9,3.515,3.515,0,0,0-1.12.183,2.952,2.952,0,0,0-1,.57,2.986,2.986,0,0,0-.735.979A3.113,3.113,0,0,0,145.744-82.261Z" transform="translate(-26.816 89.352)" fill="#040505"/>
        <path id="Path_10543" data-name="Path 10543" d="M179.315-67.349H167.089L164.4-60.1h-5.175l11.248-28.892h5.663L187.383-60.1h-5.338ZM168.8-71.872h8.8L173.2-83.69Z" transform="translate(-13.524 89.598)" fill="#040505"/>
        <path id="Path_10544" data-name="Path 10544" d="M193.9-83.593l4.687,13.732,3.953-13.732h4.808l-6.358,19.845h-4.726l-4.932-14.263-4.808,14.263h-4.848l-6.44-19.845h5.053l4.035,13.732,4.686-13.732Z" transform="translate(-2.682 93.251)" fill="#040505"/>
        <path id="Path_10545" data-name="Path 10545" d="M195.114-68.88a5.588,5.588,0,0,1,.47-2.365,5.716,5.716,0,0,1,1.263-1.773,6.056,6.056,0,0,1,1.9-1.2,10.809,10.809,0,0,1,2.363-.651l5.093-.775a1.757,1.757,0,0,0,1.162-.51,1.439,1.439,0,0,0,.305-.916,2.88,2.88,0,0,0-.9-2.14,3.968,3.968,0,0,0-2.853-.877,3.871,3.871,0,0,0-2.895,1.04,4.164,4.164,0,0,0-1.181,2.547l-4.32-.979a6.269,6.269,0,0,1,.775-2.443A7.381,7.381,0,0,1,198.007-82a8.12,8.12,0,0,1,2.547-1.425,9.866,9.866,0,0,1,3.321-.53,10.956,10.956,0,0,1,3.892.612,7.127,7.127,0,0,1,2.608,1.628,6.324,6.324,0,0,1,1.467,2.365,8.486,8.486,0,0,1,.468,2.811v9.863a18.546,18.546,0,0,0,.1,2.18c.067.557.116.891.143,1h-4.4a4,4,0,0,1-.122-.713,14.929,14.929,0,0,1-.082-1.813,7.058,7.058,0,0,1-2.2,2.138,6.962,6.962,0,0,1-3.913,1,7.582,7.582,0,0,1-2.791-.49,6.463,6.463,0,0,1-2.12-1.325,5.817,5.817,0,0,1-1.343-1.915A5.6,5.6,0,0,1,195.114-68.88Zm7.62,2.281a6.546,6.546,0,0,0,1.875-.265,4.094,4.094,0,0,0,1.568-.855,4.192,4.192,0,0,0,1.08-1.568,6.387,6.387,0,0,0,.408-2.445v-.9l-5.175.775a4.091,4.091,0,0,0-1.875.835,2.257,2.257,0,0,0-.773,1.855,2.532,2.532,0,0,0,.733,1.793A2.836,2.836,0,0,0,202.735-66.6Z" transform="translate(10.776 93.004)" fill="#040505"/>
        <path id="Path_10546" data-name="Path 10546" d="M209.951-55.72l4.768-10.391-8.476-17.482h5.338l5.705,12.551,5.338-12.551h5.013L215-55.72Z" transform="translate(18.31 93.251)" fill="#040505"/>
      </g>
      <g id="Group_15961" data-name="Group 15961" transform="translate(0.594 39.065)">
        <path id="Path_10547" data-name="Path 10547" d="M72.7-57.866l.889-.518a2.817,2.817,0,0,0,2.977,2.046c1.571,0,2.445-.756,2.445-1.868,0-1.2-1.021-1.585-2.547-2.088-1.69-.563-3.321-1.008-3.321-2.92a2.9,2.9,0,0,1,3.186-2.844,3.643,3.643,0,0,1,3.423,2.237l-.875.488a2.62,2.62,0,0,0-2.547-1.717c-1.246,0-2.148.651-2.148,1.793,0,1.125.889,1.481,2.3,1.94,1.882.622,3.569,1.155,3.569,3.082,0,1.778-1.42,2.9-3.5,2.9A3.8,3.8,0,0,1,72.7-57.866Z" transform="translate(-72.699 66.058)" fill="#e10075"/>
        <path id="Path_10548" data-name="Path 10548" d="M87.187-60.38c0,.149-.015.312-.03.46H80.651A2.787,2.787,0,0,0,83.6-57.475a2.618,2.618,0,0,0,2.386-1.259l.86.5a3.708,3.708,0,0,1-3.262,1.7,3.757,3.757,0,0,1-3.939-3.881,3.756,3.756,0,0,1,3.867-3.882A3.727,3.727,0,0,1,87.187-60.38Zm-6.535-.488h5.528a2.651,2.651,0,0,0-2.667-2.475A2.771,2.771,0,0,0,80.651-60.868Z" transform="translate(-67.996 67.254)" fill="#e10075"/>
        <path id="Path_10549" data-name="Path 10549" d="M86.574-60.409a3.806,3.806,0,0,1,3.9-3.882,3.481,3.481,0,0,1,3.243,1.94l-.8.46a2.623,2.623,0,0,0-2.445-1.452,2.89,2.89,0,0,0-2.918,2.935,2.89,2.89,0,0,0,2.918,2.933,2.806,2.806,0,0,0,2.5-1.452l.815.475a3.683,3.683,0,0,1-3.319,1.925A3.805,3.805,0,0,1,86.574-60.409Z" transform="translate(-63.305 67.254)" fill="#e10075"/>
        <path id="Path_10550" data-name="Path 10550" d="M99.749-64.185v7.408h-.978v-1.155A2.735,2.735,0,0,1,96.283-56.6a2.76,2.76,0,0,1-2.9-3.037v-4.548h.978v4.548a1.869,1.869,0,0,0,2.014,2.09c1.3,0,2.4-.771,2.4-2.755v-3.882Z" transform="translate(-58.698 67.326)" fill="#e10075"/>
        <path id="Path_10551" data-name="Path 10551" d="M103.5-64.256v.948a2.192,2.192,0,0,0-2.341,2.46v4.119h-.978v-7.408h.978v1.229A2.394,2.394,0,0,1,103.5-64.256Z" transform="translate(-54.091 67.278)" fill="#e10075"/>
        <path id="Path_10552" data-name="Path 10552" d="M111.738-60.38c0,.149-.015.312-.03.46H105.2a2.787,2.787,0,0,0,2.948,2.445,2.62,2.62,0,0,0,2.386-1.259l.86.5a3.708,3.708,0,0,1-3.262,1.7,3.757,3.757,0,0,1-3.939-3.881,3.755,3.755,0,0,1,3.866-3.882A3.727,3.727,0,0,1,111.738-60.38Zm-6.535-.488h5.528a2.652,2.652,0,0,0-2.668-2.475A2.769,2.769,0,0,0,105.2-60.868Z" transform="translate(-51.374 67.254)" fill="#e10075"/>
      </g>
    </g>
    <g id="Group_15963" data-name="Group 15963" transform="translate(26.558 -98.593)">
      <path id="Path_10553" data-name="Path 10553" d="M55.67-98.593l0,.007L26.558-69.7v28.828H42.076c5.372,11.661,15.674,23.066,15.674,23.066A120.331,120.331,0,0,0,69.9-34.271H87.289V-69.7ZM76.576-53.8A18.871,18.871,0,0,0,57.749-71.675,18.872,18.872,0,0,0,38.908-53.392h6.054A12.815,12.815,0,0,1,57.749-65.622,12.822,12.822,0,0,1,70.544-53.392c.005.19.008.379.008.574a17.967,17.967,0,0,1-1.117,5.685c-2.157,6.314-7.084,13.926-11.686,19.863-4.6-5.937-9.522-13.557-11.682-19.863h-.005v-.032h-6.7l.017.029H32.822V-67.095L55.851-89.946,81.03-66.937v26.4H73.269a41.29,41.29,0,0,0,2.492-6.6c.032-.122.065-.247.1-.374a16.007,16.007,0,0,0,.634-2.677A22.981,22.981,0,0,0,76.576-53.8Z" transform="translate(-26.558 98.593)" fill="url(#linear-gradient)"/>
      <circle id="Ellipse_111" data-name="Ellipse 111" cx="4.952" cy="4.952" r="4.952" transform="translate(26.346 41.006)" fill="#e10075"/>
    </g>
  </g>
</svg>
