<?xml version="1.0" standalone="no"?>
<!DOCTYPE svg PUBLIC "-//W3C//DTD SVG 20010904//EN"
 "http://www.w3.org/TR/2001/REC-SVG-20010904/DTD/svg10.dtd">
<svg version="1.0" xmlns="http://www.w3.org/2000/svg"
 width="300.000000pt" height="197.000000pt" viewBox="0 0 300.000000 197.000000"
 preserveAspectRatio="xMidYMid meet">
<metadata>
Created by potrace 1.10, written by Peter Selinger 2001-2011
</metadata>
<g transform="translate(0.000000,197.000000) scale(0.100000,-0.100000)"
fill="#000000" stroke="none">
<path d="M1249 1744 l-229 -228 0 -228 0 -228 148 0 148 0 23 55 c24 58 148
255 160 255 8 0 120 -168 146 -219 29 -57 55 -142 55 -178 0 -83 -64 -165
-147 -189 -48 -14 -58 -14 -107 0 -66 19 -121 75 -138 141 l-12 45 -49 0 -48
0 6 -37 c18 -106 102 -207 197 -239 69 -23 168 -16 231 16 84 42 156 143 157
218 l0 32 95 0 95 0 0 278 0 277 -84 75 c-45 41 -158 144 -250 229 l-167 154
-230 -229z m295 135 c31 -28 53 -56 49 -62 -3 -6 -1 -7 5 -3 6 4 37 -17 69
-48 32 -30 67 -63 79 -73 12 -10 62 -56 112 -102 l92 -84 0 -263 0 -264 -71 0
c-89 0 -105 -8 -113 -62 -8 -50 -53 -125 -94 -155 -61 -45 -116 -63 -186 -59
-37 1 -72 8 -78 14 -7 7 -18 12 -26 12 -25 0 -94 65 -117 110 -30 60 -35 94
-13 98 11 2 23 -10 36 -42 24 -54 81 -111 131 -132 71 -30 186 -5 235 50 56
64 65 83 67 137 2 73 -7 111 -49 194 -37 74 -136 230 -152 240 -27 17 -57 -11
-115 -104 -5 -9 -19 -29 -31 -46 -11 -16 -33 -56 -48 -87 l-28 -57 -124 1
-124 1 0 206 0 206 212 212 c117 117 216 213 220 213 3 0 31 -23 62 -51z"/>
<path d="M1287 1672 l-187 -187 0 -160 c1 -194 1 -195 91 -195 l64 0 30 48
c16 26 32 52 34 57 9 22 126 188 152 216 l29 31 30 -34 c67 -72 230 -341 230
-379 0 -38 94 -53 124 -21 14 16 17 47 18 219 1 109 -3 206 -8 215 -5 9 -72
73 -149 144 -77 70 -166 151 -199 181 -32 29 -61 53 -65 53 -3 0 -91 -84 -194
-188z m396 -23 l197 -180 0 -205 0 -204 -48 0 -48 0 -19 55 c-10 31 -41 93
-67 138 -64 107 -187 269 -202 264 -18 -6 -139 -170 -196 -267 l-53 -90 -64 0
-63 0 0 158 0 157 177 177 c98 97 180 177 183 177 3 1 95 -80 203 -180z"/>
<path d="M1449 1031 c-16 -16 -29 -39 -29 -51 0 -25 51 -80 74 -80 45 0 86 43
86 91 0 28 -44 69 -75 69 -16 0 -38 -12 -56 -29z m91 -11 c35 -35 20 -83 -30
-95 -51 -12 -83 60 -44 99 21 22 50 20 74 -4z"/>
<path d="M1439 445 c-40 -22 -54 -64 -36 -107 8 -20 20 -39 26 -42 7 -5 1 -18
-19 -37 -54 -55 -36 -136 35 -159 39 -13 84 -3 115 25 15 14 19 13 35 -5 12
-14 31 -20 59 -20 l40 0 -42 43 -42 43 24 23 c15 14 25 37 28 62 2 21 2 39 1
39 -1 0 -21 -20 -45 -46 l-42 -45 -29 29 -29 29 31 31 c47 46 42 110 -10 137
-35 19 -66 18 -100 0z m79 -47 c17 -17 15 -35 -9 -59 -20 -20 -22 -20 -40 -3
-31 28 -19 74 21 74 9 0 21 -5 28 -12z m-18 -130 c0 -7 -4 -7 -13 1 -8 6 -17
8 -20 4 -4 -3 -7 1 -7 11 0 14 4 15 20 6 11 -6 20 -16 20 -22z m40 -90 c0 -4
-14 -14 -30 -23 -33 -17 -63 -9 -74 21 -6 17 -2 28 22 57 15 17 17 16 49 -15
18 -17 33 -35 33 -40z m54 -3 c3 -9 -2 -13 -15 -12 -11 1 -19 9 -19 19 0 20
25 15 34 -7z"/>
<path d="M0 435 c0 -8 7 -15 15 -15 11 0 15 -12 15 -50 0 -27 5 -61 12 -75 9
-19 9 -28 0 -37 -7 -7 -12 -38 -12 -70 0 -45 -3 -58 -15 -58 -8 0 -15 -7 -15
-15 0 -10 10 -15 30 -15 l30 0 0 75 0 75 86 0 86 0 -4 -75 -3 -75 30 0 30 0 0
175 0 175 -30 0 -30 0 3 -69 4 -69 -86 -4 -86 -3 0 73 0 72 -30 0 c-20 0 -30
-5 -30 -15z m250 -156 c0 -11 -4 -18 -10 -14 -5 3 -7 12 -3 20 7 21 13 19 13
-6z"/>
<path d="M1852 293 c-34 -87 -64 -166 -68 -176 -6 -16 -2 -18 26 -15 29 3 35
8 48 46 l14 43 76 -3 75 -3 16 -42 c14 -39 18 -43 48 -43 l33 0 -13 33 c-8 17
-38 96 -68 174 l-54 143 -36 0 -36 0 -61 -157z m116 107 c4 -12 3 -13 -10 -3
-8 7 -18 10 -21 6 -4 -3 -7 -1 -7 6 0 17 32 10 38 -9z m6 -84 c14 -37 26 -70
26 -72 0 -2 -24 -4 -54 -4 l-54 0 26 74 c15 41 28 74 29 73 1 -1 13 -33 27
-71z m-105 -102 c-14 -18 -24 -11 -15 11 3 9 11 13 16 10 8 -5 7 -11 -1 -21z
m174 6 c4 -17 2 -18 -14 -9 -11 5 -17 14 -14 20 10 15 22 10 28 -11z"/>
<path d="M400 332 c-97 -48 -84 -202 19 -233 81 -24 161 34 161 118 0 55 -24
98 -66 118 -42 20 -71 19 -114 -3z m97 -47 c47 -33 33 -125 -22 -139 -70 -18
-114 76 -60 129 28 29 51 31 82 10z"/>
<path d="M715 338 c-11 -6 -23 -16 -27 -22 -5 -7 -8 -4 -8 7 0 11 -8 17 -25
17 l-25 0 0 -120 0 -120 28 0 27 0 -3 78 c-3 66 0 82 16 102 17 21 24 23 48
15 29 -10 29 -11 32 -103 l3 -92 29 0 30 0 0 84 c0 89 12 116 49 116 35 0 45
-27 42 -116 l-2 -84 30 0 31 0 0 90 c0 102 -11 134 -51 150 -32 13 -82 6 -99
-15 -10 -13 -16 -12 -37 5 -29 22 -58 25 -88 8z m105 -58 c0 -5 -4 -10 -10
-10 -5 0 -10 5 -10 10 0 6 5 10 10 10 6 0 10 -4 10 -10z"/>
<path d="M1105 341 c-67 -29 -95 -126 -55 -189 41 -65 131 -78 184 -25 31 31
32 40 5 48 -14 5 -27 0 -40 -14 -11 -12 -30 -21 -42 -21 -31 0 -67 27 -67 51
0 19 6 20 88 18 60 -1 87 2 86 10 -1 6 -2 22 -2 36 -3 41 -51 86 -97 90 -22 3
-49 1 -60 -4z m87 -58 c29 -26 22 -31 -42 -35 -63 -3 -71 3 -43 34 20 22 61
23 85 1z m-125 -65 c-3 -7 -5 -2 -5 12 0 14 2 19 5 13 2 -7 2 -19 0 -25z"/>
<path d="M2543 315 l-38 -38 28 -10 c24 -8 31 -6 43 12 20 28 69 28 84 1 9
-17 7 -22 -15 -30 -15 -6 -35 -10 -45 -10 -86 0 -122 -98 -50 -135 39 -20 62
-19 94 6 21 17 26 18 26 5 0 -10 9 -16 25 -16 25 0 25 0 25 94 0 84 -3 98 -23
121 -17 20 -35 28 -70 32 -44 5 -49 3 -84 -32z m144 -87 c-3 -8 -6 -5 -6 6 -1
11 2 17 5 13 3 -3 4 -12 1 -19z m-23 -40 c-11 -38 -26 -49 -58 -46 -25 2 -31
7 -31 28 0 25 22 37 73 39 20 1 22 -3 16 -21z"/>
<path d="M2144 220 c41 -120 41 -121 71 -118 28 3 31 8 55 85 22 74 40 105 40
71 0 -7 12 -46 26 -85 24 -66 29 -73 54 -73 26 0 29 5 66 120 l39 120 -30 0
c-30 0 -31 -2 -49 -72 -10 -40 -21 -77 -24 -82 -3 -6 -18 26 -32 70 -25 74
-28 79 -57 82 -30 3 -31 2 -58 -79 -30 -90 -33 -90 -60 14 -17 65 -19 67 -50
67 l-31 0 40 -120z m166 80 c0 -5 -4 -10 -10 -10 -5 0 -10 5 -10 10 0 6 5 10
10 10 6 0 10 -4 10 -10z m-87 -143 c4 3 7 1 7 -5 0 -18 -22 -26 -31 -11 -13
21 -11 33 4 20 8 -6 17 -8 20 -4z m180 -13 c-6 -18 -19 -18 -26 -1 -3 7 3 13
14 14 12 1 16 -3 12 -13z"/>
<path d="M2792 233 l50 -108 -30 -61 -31 -62 32 3 c31 2 34 7 109 169 l77 166
-32 0 c-30 0 -33 -4 -62 -75 -16 -41 -32 -71 -35 -67 -4 4 -20 37 -36 74 -27
63 -31 67 -61 68 l-32 0 51 -107z m92 -66 c4 4 4 0 0 -10 -5 -15 -24 -25 -24
-13 0 2 -3 13 -7 23 -6 15 -4 16 9 6 8 -7 18 -10 22 -6z"/>
</g>
</svg>
