<svg xmlns="http://www.w3.org/2000/svg" xmlns:xlink="http://www.w3.org/1999/xlink" width="225.556" height="225.556" viewBox="0 0 225.556 225.556">
  <defs>
    <filter id="Ellipse_71" x="0" y="0" width="225.556" height="225.556" filterUnits="userSpaceOnUse">
      <feOffset dy="3" input="SourceAlpha"/>
      <feGaussianBlur stdDeviation="19.5" result="blur"/>
      <feFlood flood-opacity="0.161"/>
      <feComposite operator="in" in2="blur"/>
      <feComposite in="SourceGraphic"/>
    </filter>
    <linearGradient id="linear-gradient" x1="0.5" x2="0.5" y2="1" gradientUnits="objectBoundingBox">
      <stop offset="0" stop-color="#46d546"/>
      <stop offset="1" stop-color="#46d5a4"/>
    </linearGradient>
  </defs>
  <g id="Group_1571" data-name="Group 1571" transform="translate(58.5 55.5)">
    <g transform="matrix(1, 0, 0, 1, -58.5, -55.5)" filter="url(#Ellipse_71)">
      <ellipse id="Ellipse_71-2" data-name="Ellipse 71" cx="54.278" cy="54.278" rx="54.278" ry="54.278" transform="translate(58.5 55.5)" fill="#fff"/>
    </g>
    <path id="icons8_user_group_2" d="M50.094,10a6.285,6.285,0,0,1,4.7,2.009,6.379,6.379,0,0,1,1.572,4.264,6.513,6.513,0,0,1-1.3,3.533,10.36,10.36,0,0,1,5.485,9.013H56.367a6.257,6.257,0,0,0-12.5-.478A16.579,16.579,0,0,1,48,39.275H43.821a12.546,12.546,0,0,0-25.093,0H14.546a16.579,16.579,0,0,1,4.133-10.933,6.257,6.257,0,0,0-12.5.478H2a10.436,10.436,0,0,1,5.236-9,6.474,6.474,0,0,1-1.054-3.549,6.378,6.378,0,0,1,1.572-4.264A6.285,6.285,0,0,1,12.455,10a6.285,6.285,0,0,1,4.7,2.009,6.378,6.378,0,0,1,1.572,4.264,6.474,6.474,0,0,1-1.054,3.549,10.482,10.482,0,0,1,4.57,5.444,16.733,16.733,0,0,1,2.63-1.421,8.717,8.717,0,0,1,.131-11.182A8.305,8.305,0,0,1,31.275,10a8.305,8.305,0,0,1,6.269,2.663,8.717,8.717,0,0,1,.131,11.182,16.727,16.727,0,0,1,2.647,1.429,10.711,10.711,0,0,1,4.8-5.468,6.513,6.513,0,0,1-1.3-3.533,6.379,6.379,0,0,1,1.572-4.264A6.285,6.285,0,0,1,50.094,10Zm0,4.182a1.836,1.836,0,0,0-1.572.6,2.389,2.389,0,0,0,0,2.973,2.347,2.347,0,0,0,3.145,0,2.389,2.389,0,0,0,0-2.973A1.836,1.836,0,0,0,50.094,14.182Zm-18.819,0a3.85,3.85,0,0,0-3.141,1.258,4.626,4.626,0,0,0,0,5.848,3.85,3.85,0,0,0,3.141,1.258,3.85,3.85,0,0,0,3.141-1.258,4.626,4.626,0,0,0,0-5.848A3.85,3.85,0,0,0,31.275,14.182Zm-18.819,0a1.836,1.836,0,0,0-1.572.6,2.39,2.39,0,0,0,0,2.973,1.836,1.836,0,0,0,1.572.6,1.836,1.836,0,0,0,1.572-.6,2.39,2.39,0,0,0,0-2.973A1.836,1.836,0,0,0,12.455,14.182Z" transform="translate(23.004 29.641)" fill="url(#linear-gradient)"/>
  </g>
</svg>
