<svg xmlns="http://www.w3.org/2000/svg" xmlns:xlink="http://www.w3.org/1999/xlink" width="225.556" height="225.556" viewBox="0 0 225.556 225.556">
  <defs>
    <filter id="Ellipse_75" x="0" y="0" width="225.556" height="225.556" filterUnits="userSpaceOnUse">
      <feOffset dy="3" input="SourceAlpha"/>
      <feGaussianBlur stdDeviation="19.5" result="blur"/>
      <feFlood flood-opacity="0.161"/>
      <feComposite operator="in" in2="blur"/>
      <feComposite in="SourceGraphic"/>
    </filter>
    <linearGradient id="linear-gradient" x1="0.5" x2="0.5" y2="1" gradientUnits="objectBoundingBox">
      <stop offset="0" stop-color="#46d546"/>
      <stop offset="1" stop-color="#46d5a4"/>
    </linearGradient>
  </defs>
  <g id="Group_15923" data-name="Group 15923" transform="translate(-597.5 -2582.126)">
    <g transform="matrix(1, 0, 0, 1, 597.5, 2582.13)" filter="url(#Ellipse_75)">
      <circle id="Ellipse_75-2" data-name="Ellipse 75" cx="54.278" cy="54.278" r="54.278" transform="translate(58.5 55.5)" fill="#fff"/>
    </g>
    <path id="woman-device-user-svgrepo-com" d="M56.446,25.306a.978.978,0,1,1,1.779-.813c.477,1.043,1.784,2.065,3.782,2.954a.978.978,0,1,1-.8,1.787C58.737,28.133,57.133,26.811,56.446,25.306Zm.89,14.621h-5.3l-7.457-9.34c2.747-.718,7.367-2.331,8.714-5.281a.978.978,0,0,0-1.779-.813c-1.013,2.217-5.4,3.828-8.858,4.535l-.073.017a.975.975,0,0,0-.553.406h0l0,0h0v0h0v0h0v0h0v0h0v0h0a.978.978,0,0,0,.081,1.143l8.7,10.9,0,0a.975.975,0,0,0,.679.361q.042,0,.084,0h5.775a.978.978,0,1,0,0-1.956ZM48.519,24.656a.978.978,0,1,0,0-1.956,3.166,3.166,0,0,1-3.162-3.162V11.369a9.414,9.414,0,0,1,18.827,0v8.168A3.166,3.166,0,0,1,61.021,22.7a.978.978,0,0,0,0,1.956,5.124,5.124,0,0,0,5.118-5.118V11.369a11.369,11.369,0,0,0-22.739,0v8.168A5.124,5.124,0,0,0,48.519,24.656Zm2.906-11.439c-.412.217-.838.441-1.25.674a3.425,3.425,0,0,0-1.9,1.958,2.5,2.5,0,0,0,.531,1.977c.786,1.158,2.922,3.852,5.759,3.857a5.513,5.513,0,0,0,2.814-.9,8.528,8.528,0,0,0,4.14-7.385A9.7,9.7,0,0,0,60.9,9.882a.978.978,0,0,0-1.824.706,7.76,7.76,0,0,1,.48,2.806,6.566,6.566,0,0,1-3.169,5.7,3.732,3.732,0,0,1-1.829.637c-1.553,0-3.157-1.551-4.141-3a1.594,1.594,0,0,1-.237-.438,2.846,2.846,0,0,1,.951-.693c.39-.219.8-.437,1.2-.648,2.229-1.175,4.534-2.39,4.934-4.807a4.6,4.6,0,0,0-1.121-4.2A5.792,5.792,0,0,0,51.089,4.6a.978.978,0,0,0,.287,1.935,3.9,3.9,0,0,1,3.379.78,2.755,2.755,0,0,1,.586,2.506C55.1,11.279,53.314,12.221,51.424,13.217ZM65.456,35.639h0a.978.978,0,1,0,.978.978A.978.978,0,0,0,65.456,35.639ZM71.068,25.17a.978.978,0,0,0,0,1.956A4.079,4.079,0,0,1,75.143,31.2a.978.978,0,1,0,1.956,0A6.037,6.037,0,0,0,71.068,25.17Zm-.276,8.318V42.3A2.034,2.034,0,0,1,68.76,44.33H62.152A2.034,2.034,0,0,1,60.12,42.3v-8.81a2.034,2.034,0,0,1,2.032-2.032H68.76A2.034,2.034,0,0,1,70.792,33.488Zm-1.956,0a.079.079,0,0,0-.076-.076H62.152a.079.079,0,0,0-.076.076V42.3a.079.079,0,0,0,.076.076H68.76a.079.079,0,0,0,.076-.076Zm1.458-5.322a.978.978,0,0,0,0,1.956,1.8,1.8,0,0,1,1.8,1.8.978.978,0,0,0,1.956,0A3.761,3.761,0,0,0,70.294,28.166Z" transform="translate(650.263 2669.563)" fill="url(#linear-gradient)"/>
  </g>
</svg>
